<svg xmlns="http://www.w3.org/2000/svg" viewBox="0 0 113.54 11.74"><defs><style>.cls-1{fill:#ebebeb;}</style></defs><g id="Layer_2" data-name="Layer 2"><g id="Layer_1-2" data-name="Layer 1"><path class="cls-1" d="M112.37,5.56a.5.5,0,0,0,.51-.42.41.41,0,0,0,.45-.65A14.76,14.76,0,0,0,106,0a.26.26,0,0,0-.14.5,21.43,21.43,0,0,1,6.32,4c-17.94-.26-35.9,0-53.84,0s-36-.07-54.08.09l-3.78,0a.42.42,0,1,0,0,.84c36,.33,72.1.13,108.15.13C109.85,5.59,111.11,5.58,112.37,5.56Z"/><path class="cls-1" d="M113.28,5.37c-1.09.32-1.93,1.55-2.72,2.31-1.14,1.09-2.37,2.1-3.5,3.21-.49.48.23,1.12.75.72A35.14,35.14,0,0,0,111,8.68c.84-.83,2.32-1.9,2.56-3.06A.21.21,0,0,0,113.28,5.37Z"/></g></g></svg>