<svg xmlns="http://www.w3.org/2000/svg" viewBox="0 0 113.54 10.88"><defs><style>.cls-1{fill:#ebebeb;}</style></defs><g id="Layer_2" data-name="Layer 2"><g id="Layer_1-2" data-name="Layer 1"><path class="cls-1" d="M113.31,5l-.42-.25a.31.31,0,0,0-.31-.28h-.13A35.15,35.15,0,0,0,102.29,0a.31.31,0,0,0-.2.59.36.36,0,0,0-.15.24,22.82,22.82,0,0,0-.35,3.52c-14-.12-28-.05-41.94-.05-17.64,0-35.29-.08-52.93.08L.36,4.45a.36.36,0,1,0,0,.72c17.65.16,35.29.12,52.94.13,16.09,0,32.2.19,48.29,0a40.45,40.45,0,0,0,.39,5.06.57.57,0,0,0,1,.38,24.35,24.35,0,0,1,10.26-4.82A.49.49,0,0,0,113.31,5Zm-8-1.55a1.21,1.21,0,0,1,0,.19.69.69,0,0,0-.05-.13.21.21,0,0,0-.07-.11Zm-.82,0c-.08.13-.16.26-.25.38V3.67a.41.41,0,0,0-.54-.39c0-.22-.07-.45-.12-.67.41.22.83.44,1.25.64A.43.43,0,0,0,104.54,3.43ZM103,8.88c0,.08,0,.16.07.25s0,.07.08.11l-.11.08C103,9.17,103,9,103,8.88Zm.9-.21.12,0a.57.57,0,0,0-.13.08Zm.42-.41a6.28,6.28,0,0,1,.6-2.37c.06.19.13.37.19.56a.48.48,0,0,0,.62.27c.1.2.2.39.31.58a.81.81,0,0,0,.1.09,22.35,22.35,0,0,0-1.94,1.14A.48.48,0,0,0,104.28,8.26ZM107,5.89a.39.39,0,0,0,.12-.32v0l.5,1.11-.79.37C106.88,6.65,106.93,6.27,107,5.89Zm2-.29a.45.45,0,0,0,.67.11,1.58,1.58,0,0,1,.52-.38c.12,0,.24.09.36.12a.34.34,0,0,0,.46-.19l.26.12c-.76.2-1.51.45-2.25.72C109,5.93,109,5.76,109,5.6Zm1.45-1.13A4,4,0,0,0,108.58,4h0c-.49-.18-1-.37-1.47-.57h0a.35.35,0,0,0-.45-.19l-.37-.17a.52.52,0,0,0-.47-.22c-.86-.41-1.72-.84-2.55-1.32a.38.38,0,0,0-.33,0c0-.19,0-.36,0-.55,0,0,0,0,0,0a60.2,60.2,0,0,1,7.63,3.55ZM102.84,2.8A9.46,9.46,0,0,1,103,4.38h-.22Zm.06,2.47-.1.07V5.28Z"/></g></g></svg>