<svg xmlns="http://www.w3.org/2000/svg" viewBox="0 0 90 65.41"><defs><style>.cls-1{fill:#bde4fa;}</style></defs><g id="Layer_2" data-name="Layer 2"><g id="Layer_1-2" data-name="Layer 1"><path class="cls-1" d="M33.35,1.66a42,42,0,0,1,13,.36A39.74,39.74,0,0,1,58.28,6.3a31,31,0,0,1,9.49,8.13A23.75,23.75,0,0,1,72.38,25.9a24.05,24.05,0,0,1-.2,6.56,25.39,25.39,0,0,1-1.85,6.31A31,31,0,0,1,67,44.49a33.9,33.9,0,0,1-4.45,4.9,31.4,31.4,0,0,1-5.32,3.91,30,30,0,0,1-6,2.75,59.14,59.14,0,0,1-13.21,2.36c-.53.05-.51,1.08,0,1.09a44.72,44.72,0,0,0,13.43-1.44,30.67,30.67,0,0,0,11.8-6.76c.42-.39.86-.76,1.24-1.18l1.18-1.23a34,34,0,0,0,2.12-2.67,30.32,30.32,0,0,0,3.38-5.87,29.44,29.44,0,0,0,2-6.44,30.57,30.57,0,0,0,.45-6.68,25.52,25.52,0,0,0-4.22-12.72,30.67,30.67,0,0,0-9.76-9.24A36.66,36.66,0,0,0,33.1.82C32.65.92,32.92,1.71,33.35,1.66Z"/><path class="cls-1" d="M37.38,59.68c-4.39-.61-8.72-1.3-12.93-2.29a47.8,47.8,0,0,1-12-4.32,21.5,21.5,0,0,1-8.8-8.44,21.29,21.29,0,0,1-2.08-5.82,21.83,21.83,0,0,1-.28-6.2A27.67,27.67,0,0,1,5.88,20.34a34,34,0,0,1,4.18-5.17,34.42,34.42,0,0,1,5.06-4.28A26.21,26.21,0,0,1,20.91,7.8a60.43,60.43,0,0,1,6.4-2C29.5,5.17,31.73,4.62,34,4s4.34-1.57,6.31-1.24c.43.08.84-.87.26-1.06A7.68,7.68,0,0,0,37,1.59c-1.15.19-2.21.48-3.3.71-2.16.47-4.35.92-6.54,1.45a52.6,52.6,0,0,0-6.5,2,29.05,29.05,0,0,0-3.13,1.4,26.34,26.34,0,0,0-2.93,1.79,35.77,35.77,0,0,0-9.38,9.74A32.12,32.12,0,0,0,.3,31,24.7,24.7,0,0,0,.17,37.8,22.57,22.57,0,0,0,2,44.3a21.1,21.1,0,0,0,3.75,5.61,24.81,24.81,0,0,0,5.3,4.21,42.59,42.59,0,0,0,12.73,4.74,86,86,0,0,0,13.61,1.7C37.84,60.58,37.8,59.74,37.38,59.68Z"/><path class="cls-1" d="M77.89,54a5.29,5.29,0,0,0-3-2.34,6.13,6.13,0,0,0-2-.3,4.57,4.57,0,0,0-2.24.63,3.72,3.72,0,0,0-1,.93,3.83,3.83,0,0,0-.58,1.23A5.93,5.93,0,0,0,69,56.32a7.36,7.36,0,0,0,.45,2.06,4.83,4.83,0,0,0,1.32,1.89,5.56,5.56,0,0,0,4.35,1.33,6.37,6.37,0,0,0,5.05-4.13,4.78,4.78,0,0,0,.21-2.42,4.34,4.34,0,0,0-.16-.62,4.27,4.27,0,0,0-.29-.61,3.58,3.58,0,0,0-.85-1,2.89,2.89,0,0,0-2.41-.62c-.21,0-.05,1.06,0,1.09a2.23,2.23,0,0,1,1.68,1.91,4.33,4.33,0,0,1-.75,2.83,5,5,0,0,1-2.5,2,3.72,3.72,0,0,1-3.27-.47,3.42,3.42,0,0,1-1.13-1.34,4.93,4.93,0,0,1-.37-1.74,5.77,5.77,0,0,1,.12-1.76,2.15,2.15,0,0,1,.94-1.35,4.39,4.39,0,0,1,3.27-.24,6.22,6.22,0,0,1,2.84,1.58C77.57,54.84,78,54.1,77.89,54Z"/><path class="cls-1" d="M88.31,59.33a2.49,2.49,0,0,0-1.84-2.13,3.51,3.51,0,0,0-3.12.59,4.24,4.24,0,0,0-1.58,2.89,4.9,4.9,0,0,0,.67,3.12,3.4,3.4,0,0,0,1.39,1.34,2.58,2.58,0,0,0,1,.26,4.7,4.7,0,0,0,.87,0,5.65,5.65,0,0,0,2.92-1.27,4.22,4.22,0,0,0,1-1.43A3.55,3.55,0,0,0,90,60.8a3.34,3.34,0,0,0-.73-1.65,2.53,2.53,0,0,0-1.57-.9c-.15,0-.46,1-.4,1A2.34,2.34,0,0,1,88,60.89a2.71,2.71,0,0,1-.09.86,3,3,0,0,1-.45.84,4.08,4.08,0,0,1-1.77,1.27,2.15,2.15,0,0,1-1.1.18,1.48,1.48,0,0,1-.94-.62,3.1,3.1,0,0,1-.54-2.31,3,3,0,0,1,1.19-2,2.54,2.54,0,0,1,2.11-.35A1.86,1.86,0,0,1,87.74,60,2.38,2.38,0,0,0,88.31,59.33Z"/></g></g></svg>