<?xml version="1.0" encoding="UTF-8" standalone="no"?><!DOCTYPE svg PUBLIC "-//W3C//DTD SVG 1.1//EN" "http://www.w3.org/Graphics/SVG/1.1/DTD/svg11.dtd"><svg width="100%" height="100%" viewBox="0 0 375 273" version="1.1" xmlns="http://www.w3.org/2000/svg" xmlns:xlink="http://www.w3.org/1999/xlink" xml:space="preserve" xmlns:serif="http://www.serif.com/" style="fill-rule:evenodd;clip-rule:evenodd;stroke-linejoin:round;stroke-miterlimit:2;"><g id="Layer_2"><g id="Layer_1-2"><path d="M143.979,73.488c15.994,-2.763 32.357,-3.958 48.499,-3.542c15.735,0.418 31.046,2.449 45.347,6.015c14.149,3.538 26.764,8.937 37.076,15.87c10.106,7.005 16.872,15.753 19.609,25.351c1.333,5.048 1.552,10.249 0.649,15.456c-0.807,5.216 -2.672,10.402 -5.55,15.427c-2.934,5.043 -6.684,9.918 -11.189,14.542c-4.539,4.608 -9.742,8.961 -15.534,12.996c-5.759,4.037 -12.123,7.713 -18.985,10.967c-6.809,3.3 -14.108,6.142 -21.765,8.475c-15.741,4.466 -32.081,7.819 -48.703,9.994c-1.963,0.296 -1.67,2.705 0.232,2.557c16.893,-1.051 33.657,-3.718 49.718,-7.91c16.065,-4.629 30.595,-11.409 42.516,-19.839c1.482,-1.057 3.042,-2.073 4.368,-3.187l4.134,-3.283c2.616,-2.257 5.062,-4.586 7.33,-6.979c4.612,-4.732 8.417,-9.734 11.342,-14.91c2.956,-5.147 4.996,-10.443 6.081,-15.782c1,-5.302 1.086,-10.608 0.257,-15.822c-1.89,-10.566 -8.251,-20.378 -18.422,-28.416c-10.223,-7.975 -23.311,-14.253 -38.317,-18.382c-30.669,-8.557 -66.363,-9.088 -99.803,-1.484c-1.655,0.386 -0.481,2.148 1.11,1.886Z" style="fill:#bde4fa;fill-rule:nonzero;"/><path d="M171.319,208.234c-16.482,0.05 -32.757,-0.108 -48.649,-1.009c-15.741,-0.697 -31.083,-2.744 -45.615,-6.086c-14.135,-3.225 -26.144,-9.071 -34.572,-16.829c-4.012,-3.961 -7.039,-8.324 -8.985,-12.951c-1.879,-4.661 -2.674,-9.527 -2.36,-14.45c1.024,-10.495 5.993,-20.898 14.49,-30.332c4.154,-4.765 9.001,-9.3 14.471,-13.538c5.418,-4.243 11.425,-8.177 17.938,-11.748c6.409,-3.581 13.434,-6.672 20.91,-9.202c7.636,-2.548 15.452,-4.835 23.414,-6.851c8.023,-2.217 16.213,-4.26 24.536,-6.48c8.324,-2.22 15.832,-5.147 23.24,-5.038c1.619,0.043 2.944,-2.324 0.744,-2.574c-4.406,-0.35 -8.97,-0.026 -13.321,0.946c-4.243,0.834 -8.13,1.872 -12.141,2.779c-7.946,1.832 -16.008,3.626 -24.053,5.608c-8.11,1.979 -16.056,4.278 -23.786,6.885c-3.899,1.31 -7.693,2.76 -11.361,4.34c-3.666,1.591 -7.185,3.324 -10.533,5.188c-13.29,7.402 -24.446,16.231 -32.869,26.013c-8.445,9.562 -13.796,19.972 -15.709,30.561c-0.85,5.398 -0.527,10.781 0.961,15.996c1.523,5.174 4.286,10.106 8.198,14.63c3.942,4.513 9.061,8.529 15.16,11.895c6.181,3.316 13.125,6.038 20.636,8.088c15.237,3.943 31.587,6.247 48.424,6.824c16.9,0.664 33.973,0.462 51.056,-0.604c1.681,-0.105 1.353,-2.062 -0.224,-2.061Z" style="fill:#bde4fa;fill-rule:nonzero;"/></g><path d="M75.181,160.1c-0.933,0 -1.916,-0.367 -2.95,-1.1c-1.033,-0.733 -1.766,-1.567 -2.2,-2.5c-0.4,-0.867 -0.808,-3.617 -1.225,-8.25c-0.416,-4.633 -0.625,-8.083 -0.625,-10.35l0,-2.65c-0.033,-0.767 -0.05,-1.617 -0.05,-2.55c0,-1.733 0.1,-3.45 0.3,-5.15c0.134,-0.833 0.309,-1.55 0.525,-2.15c0.217,-0.6 0.525,-1.183 0.925,-1.75c0.734,-1.133 1.834,-1.883 3.3,-2.25c0.767,-0.2 1.617,-0.3 2.55,-0.3c0.634,0 1.275,0.183 1.925,0.55c0.65,0.367 0.975,0.8 0.975,1.3c0,0.367 -0.266,0.55 -0.8,0.55c-0.2,0 -0.583,-0.117 -1.15,-0.35c-0.5,-0.233 -0.95,-0.35 -1.35,-0.35c-0.933,0 -1.775,0.192 -2.525,0.575c-0.75,0.383 -1.341,0.892 -1.775,1.525c-0.366,0.533 -0.683,1.267 -0.95,2.2c-0.266,0.933 -0.433,1.867 -0.5,2.8c-0.1,0.833 -0.15,1.833 -0.15,3l0.05,2.8c0.034,0.8 0.05,1.667 0.05,2.6c0,2.3 0.234,5.683 0.7,10.15c0.467,4.467 0.917,7.05 1.35,7.75c0.4,0.633 0.992,1.117 1.775,1.45c0.784,0.333 1.609,0.5 2.475,0.5c1.534,0 2.7,-0.483 3.5,-1.45c0.3,-0.4 0.617,-0.6 0.95,-0.6c0.3,0 0.45,0.233 0.45,0.7c0,0.6 -0.183,1.125 -0.55,1.575c-0.366,0.45 -0.866,0.792 -1.5,1.025c-1.066,0.467 -2.233,0.7 -3.5,0.7Z" style="fill:#fff;fill-rule:nonzero;"/><path d="M90.381,160.25c-3.9,0 -5.85,-6.133 -5.85,-18.4l0,-1.75c0,-9.3 1.2,-13.95 3.6,-13.95c0.167,0 0.4,0.05 0.7,0.15c1.067,0.367 2.117,0.6 3.15,0.7c0.634,0.133 1.267,0.783 1.9,1.95c0.7,1.2 1.225,2.783 1.575,4.75c0.35,1.967 0.525,3.983 0.525,6.05l-0.1,0.25c0,1.1 0.017,2.083 0.05,2.95l0.05,3c0,1.7 -0.066,3.233 -0.2,4.6c-0.2,2.067 -0.533,3.85 -1,5.35c-0.3,0.9 -0.641,1.65 -1.025,2.25c-0.383,0.6 -0.858,1.1 -1.425,1.5c-0.533,0.4 -1.183,0.6 -1.95,0.6Zm-0.2,-1.45c1.3,0 2.267,-0.917 2.9,-2.75c0.634,-1.867 1.017,-3.767 1.15,-5.7c0.134,-2 0.2,-3.6 0.2,-4.8c0,-1.333 -0.1,-3.3 -0.3,-5.9c-0.166,-2.9 -0.25,-4.867 -0.25,-5.9l-0.2,-0.4l0.1,-0.25c0,-1.467 -0.408,-2.733 -1.225,-3.8c-0.816,-1.067 -1.808,-1.6 -2.975,-1.6c-1.533,0 -2.45,0.733 -2.75,2.2c-0.066,0.5 -0.133,1.217 -0.2,2.15c0,2.467 -0.1,4.15 -0.3,5.05c0,0.5 -0.05,1.283 -0.15,2.35l-0.1,2.35c0,0.733 0.017,1.383 0.05,1.95l0.05,2c0,1.567 0.134,3.367 0.4,5.4c0.2,1.5 0.434,2.767 0.7,3.8c0.267,1.033 0.65,1.917 1.15,2.65c0.5,0.8 1.084,1.2 1.75,1.2Z" style="fill:#fff;fill-rule:nonzero;"/><path d="M115.231,159.5c-0.266,0 -0.458,-0.1 -0.575,-0.3c-0.116,-0.2 -0.225,-0.5 -0.325,-0.9c-0.033,-0.267 -0.1,-0.5 -0.2,-0.7l0.05,-0.15c-0.266,-1.567 -0.833,-3.483 -1.7,-5.75l-0.9,-2.6c-0.066,-0.067 -0.383,-0.917 -0.95,-2.55l-0.4,-1.2c-3,-9.267 -4.883,-14.283 -5.65,-15.05c-0.266,0.9 -0.4,2.067 -0.4,3.5c0,0.767 0.017,1.433 0.05,2l0.05,1.95l-0.05,1.2c-0.033,0.367 -0.05,0.767 -0.05,1.2c0,0.733 0.034,1.367 0.1,1.9c0.067,1.067 0.1,1.6 0.1,1.6l-0.15,0c0,5.567 0.117,8.633 0.35,9.2l0,4.5c0.134,0.267 0.2,0.617 0.2,1.05c0,0.267 -0.091,0.5 -0.275,0.7c-0.183,0.2 -0.408,0.3 -0.675,0.3c-0.7,0 -1.05,-0.9 -1.05,-2.7l0.1,-1.6c0.067,-0.5 0.1,-1.05 0.1,-1.65c0,-1.6 -0.05,-4 -0.15,-7.2c-0.1,-3.2 -0.15,-5.6 -0.15,-7.2c0,-0.967 0.05,-2.45 0.15,-4.45c0.1,-1.967 0.15,-3.433 0.15,-4.4l0,-0.65c0,-1.633 0.3,-2.7 0.9,-3.2l0.15,0.15l0.5,-0.1c0.134,0.033 0.284,0.133 0.45,0.3c0.134,0.133 0.2,0.283 0.2,0.45l0.1,0.3c0,0.067 0.009,0.125 0.025,0.175c0.017,0.05 0.025,0.075 0.025,0.075c0.534,2.367 1.734,5.683 3.6,9.95c1.9,4.5 3.084,7.483 3.55,8.95c0.334,1.167 0.6,2.2 0.8,3.1c0.634,2.833 1.384,5.017 2.25,6.55l0.1,-0.15c0.767,-7.4 1.15,-16.483 1.15,-27.25l-0.05,-0.6c-0.033,-0.167 -0.05,-0.383 -0.05,-0.65c0,-0.7 0.234,-1.05 0.7,-1.05c0.3,0 0.559,0.15 0.775,0.45c0.217,0.3 0.325,0.633 0.325,1l0,3.35l-0.25,0.4c0,3.167 -0.183,8.367 -0.55,15.6c-0.366,7.233 -0.716,11.167 -1.05,11.8l-0.85,0.2l0,0.05l-0.05,-0.05l-0.5,0.15Z" style="fill:#fff;fill-rule:nonzero;"/><path d="M128.781,158.6l-0.05,-1.85c-0.033,-0.533 -0.05,-1.133 -0.05,-1.8c0,-0.333 0.017,-0.617 0.05,-0.85l0.05,-0.9c0,-0.333 -0.066,-0.733 -0.2,-1.2c0,-2.233 -0.166,-6.383 -0.5,-12.45c-0.333,-5.867 -0.516,-9.85 -0.55,-11.95c-2.066,0 -3.45,-0.05 -4.15,-0.15c-0.666,-0.167 -1,-0.433 -1,-0.8c0.167,-0.367 0.484,-0.55 0.95,-0.55c1,0 2.45,0.067 4.35,0.2c1.734,0.167 3.184,0.25 4.35,0.25l1.05,0l1.05,-0.05c0.6,0 0.9,0.217 0.9,0.65c0,0.2 -0.108,0.358 -0.325,0.475c-0.216,0.117 -0.475,0.175 -0.775,0.175c-0.666,0 -1.366,-0.033 -2.1,-0.1l-2.15,-0.1c-0.133,0 -0.2,0.05 -0.2,0.15c-0.033,0.1 -0.05,0.417 -0.05,0.95c0,3.233 0.2,8.133 0.6,14.7c0.367,6.8 0.55,11.683 0.55,14.65c0,0.233 -0.141,0.45 -0.425,0.65c-0.283,0.2 -0.558,0.3 -0.825,0.3l-0.55,-0.4Z" style="fill:#fff;fill-rule:nonzero;"/><path d="M150.181,159.75c-0.5,0 -0.816,-0.058 -0.95,-0.175c-0.133,-0.117 -0.233,-0.425 -0.3,-0.925c-0.3,-2.433 -0.483,-3.95 -0.55,-4.55l-0.25,-2c-0.733,-0.167 -1.566,-0.25 -2.5,-0.25l-1.8,-0.1c-0.8,-0.1 -1.383,-0.15 -1.75,-0.15c-0.2,0 -0.316,0.083 -0.35,0.25c0,0.1 -0.016,0.15 -0.05,0.15l-0.1,1c-0.033,0.6 -0.216,1.8 -0.55,3.6c-0.166,0.9 -0.366,1.6 -0.6,2.1c-0.266,0.567 -0.516,0.85 -0.75,0.85c-0.2,0 -0.416,-0.092 -0.65,-0.275c-0.233,-0.183 -0.35,-0.375 -0.35,-0.575l0.1,-0.3c0.6,-2.367 1.1,-4.717 1.5,-7.05l0.6,-3.1l0.6,-3.8c0,0 0.184,-1.1 0.55,-3.3c0.167,-0.9 0.467,-2.35 0.9,-4.35c0.467,-2.267 0.75,-3.817 0.85,-4.65c0.034,-0.1 0.1,-0.717 0.2,-1.85c0.134,-1.267 0.25,-2.2 0.35,-2.8c0.1,-0.867 0.2,-1.367 0.3,-1.5l0.35,0c0.1,0.033 0.217,0.05 0.35,0.05c0.4,0 0.7,-0.1 0.9,-0.3c0.234,0 0.442,0.075 0.625,0.225c0.184,0.15 0.275,0.325 0.275,0.525c0,1.6 0.117,3.433 0.35,5.5c0.134,1.067 0.234,1.95 0.3,2.65c0.367,4.3 1.3,12.367 2.8,24.2l0,0.15c0,0.333 -0.133,0.583 -0.4,0.75Zm-2.3,-9c-0.333,-4.8 -0.966,-11.883 -1.9,-21.25l-2.7,13.35c-0.766,3.833 -1.15,6.25 -1.15,7.25c0,0.167 0.634,0.317 1.9,0.45c1.267,0.133 2.384,0.2 3.35,0.2l0.5,0Z" style="fill:#fff;fill-rule:nonzero;"/><path d="M159.681,159.65c-0.633,-0.2 -1.175,-0.483 -1.625,-0.85c-0.45,-0.367 -0.875,-0.917 -1.275,-1.65c-0.7,-1.333 -1.116,-3.25 -1.25,-5.75c-0.066,-1.133 -0.1,-2.133 -0.1,-3l0,-5.7c0,-2.167 0.067,-4.267 0.2,-6.3c0.1,-1.5 0.25,-2.767 0.45,-3.8c0.2,-1.033 0.517,-2.067 0.95,-3.1c0.467,-1.067 0.984,-1.817 1.55,-2.25c0.234,-0.2 0.684,-0.433 1.35,-0.7c0.434,-0.167 0.85,-0.35 1.25,-0.55l2.15,0c0.034,0.033 0.084,0.05 0.15,0.05l0.25,0.05l0.2,0.15c0.1,0.1 0.15,0.167 0.15,0.2c0.034,0.067 0.05,0.167 0.05,0.3l-0.65,0.75l-2.1,0c-0.633,0 -1.208,0.308 -1.725,0.925c-0.516,0.617 -0.908,1.392 -1.175,2.325c-0.266,0.833 -0.483,1.817 -0.65,2.95c-0.166,1.133 -0.266,2.117 -0.3,2.95c-0.066,1.067 -0.1,1.8 -0.1,2.2l-0.1,0.25c0,1.867 -0.033,3.55 -0.1,5.05l-0.1,5.05c0,1.467 0.1,2.817 0.3,4.05c0.167,1.333 0.65,2.533 1.45,3.6c0.767,1.067 1.95,1.6 3.55,1.6c0.5,0 0.917,-0.15 1.25,-0.45c0.5,0 0.75,0.183 0.75,0.55c0,0.233 -0.208,0.508 -0.625,0.825c-0.416,0.317 -0.841,0.558 -1.275,0.725l-1.65,0l-1.2,-0.45Z" style="fill:#fff;fill-rule:nonzero;"/><path d="M173.531,158.6l-0.05,-1.85c-0.033,-0.533 -0.05,-1.133 -0.05,-1.8c0,-0.333 0.017,-0.617 0.05,-0.85l0.05,-0.9c0,-0.333 -0.066,-0.733 -0.2,-1.2c0,-2.233 -0.166,-6.383 -0.5,-12.45c-0.333,-5.867 -0.516,-9.85 -0.55,-11.95c-2.066,0 -3.45,-0.05 -4.15,-0.15c-0.666,-0.167 -1,-0.433 -1,-0.8c0.167,-0.367 0.484,-0.55 0.95,-0.55c1,0 2.45,0.067 4.35,0.2c1.734,0.167 3.184,0.25 4.35,0.25l1.05,0l1.05,-0.05c0.6,0 0.9,0.217 0.9,0.65c0,0.2 -0.108,0.358 -0.325,0.475c-0.216,0.117 -0.475,0.175 -0.775,0.175c-0.666,0 -1.366,-0.033 -2.1,-0.1l-2.15,-0.1c-0.133,0 -0.2,0.05 -0.2,0.15c-0.033,0.1 -0.05,0.417 -0.05,0.95c0,3.233 0.2,8.133 0.6,14.7c0.367,6.8 0.55,11.683 0.55,14.65c0,0.233 -0.141,0.45 -0.425,0.65c-0.283,0.2 -0.558,0.3 -0.825,0.3l-0.55,-0.4Z" style="fill:#fff;fill-rule:nonzero;"/><path d="M195.831,159.4c-0.4,0 -0.8,-0.1 -1.2,-0.3c-0.4,-0.2 -0.6,-0.433 -0.6,-0.7c0,-0.2 0.134,-0.533 0.4,-1c0.267,-0.433 0.384,-0.767 0.35,-1l-0.15,-4.4l-0.35,-13.65l-0.1,-6.05c-0.033,-3.7 -0.116,-6.017 -0.25,-6.95c-0.066,-0.367 -0.2,-0.783 -0.4,-1.25c-0.233,-0.633 -0.35,-1.083 -0.35,-1.35c0,-0.8 1.267,-1.2 3.8,-1.2l0.25,0c1.7,0 3.167,0.583 4.4,1.75c0.967,0.9 1.834,2.317 2.6,4.25c0.534,1.533 0.934,3.25 1.2,5.15c0.134,1 0.25,2.533 0.35,4.6l0,1.55c0,2.067 -0.275,4.308 -0.825,6.725c-0.55,2.417 -1.325,4.675 -2.325,6.775c-0.6,1.333 -1.375,2.533 -2.325,3.6c-0.95,1.067 -1.858,1.908 -2.725,2.525c-0.866,0.617 -1.45,0.925 -1.75,0.925Zm0.75,-2.55c1.234,-0.633 2.334,-1.558 3.3,-2.775c0.967,-1.217 1.734,-2.558 2.3,-4.025c0.5,-1.233 0.917,-2.642 1.25,-4.225c0.334,-1.583 0.567,-3.058 0.7,-4.425c0.1,-1.2 0.15,-2.35 0.15,-3.45c0,-9.733 -2.683,-14.6 -8.05,-14.6c-0.7,0 -1.05,0.183 -1.05,0.55c0,1.167 0.067,2.55 0.2,4.15c0.134,1.633 0.2,3.017 0.2,4.15c0,1.833 0.134,5.017 0.4,9.55c0.234,3.933 0.35,7.1 0.35,9.5l0,5.6l0.25,0Z" style="fill:#fff;fill-rule:nonzero;"/><path d="M213.631,159.95c-0.6,0 -0.933,-0.35 -1,-1.05l0,-0.65c0.034,-0.167 0.05,-0.367 0.05,-0.6l-0.2,-0.2c0.267,-0.7 0.4,-1.383 0.4,-2.05c0,-0.767 -0.05,-1.867 -0.15,-3.3l-0.1,-3.3c0,-1.667 0.05,-4.167 0.15,-7.5c0.134,-2.967 0.2,-5.483 0.2,-7.55l-0.1,-3c-0.066,-0.9 -0.1,-1.9 -0.1,-3c0,-0.5 0.117,-0.858 0.35,-1.075c0.234,-0.217 0.6,-0.325 1.1,-0.325c0.334,0 0.6,0.1 0.8,0.3c0.067,0.033 0.55,0.1 1.45,0.2c0.834,0.1 1.55,0.25 2.15,0.45c0.634,0.2 0.95,0.45 0.95,0.75c0,0.333 -0.316,0.667 -0.95,1c-1.9,-0.633 -3.25,-0.95 -4.05,-0.95l-0.25,0.3c0.034,0.3 0.05,1.017 0.05,2.15c0,1.433 -0.033,2.717 -0.1,3.85c-0.033,1.167 -0.05,2.467 -0.05,3.9c0,0.933 0.234,1.4 0.7,1.4l0.8,-0.05c0.267,-0.033 0.55,-0.05 0.85,-0.05c1.3,0 1.95,0.3 1.95,0.9c0,0.367 -0.083,0.675 -0.25,0.925c-0.166,0.25 -0.416,0.375 -0.75,0.375c-0.5,0 -0.883,-0.133 -1.15,-0.4l-1.6,-0.25l-0.25,0l-0.25,0.25l0,0.15c0.067,0.567 0.1,1.883 0.1,3.95c0,1.3 -0.016,2.483 -0.05,3.55l-0.05,3.55c0,1.3 0.05,2.633 0.15,4c0.034,0.767 0.2,1.275 0.5,1.525c0.3,0.25 0.85,0.375 1.65,0.375l0.9,-0.05c0.3,-0.033 0.634,-0.05 1,-0.05c0.967,0 1.45,0.217 1.45,0.65c0,0.6 -0.733,0.9 -2.2,0.9l-4.1,0Z" style="fill:#fff;fill-rule:nonzero;"/><path d="M228.781,158.6l-0.05,-1.85c-0.033,-0.533 -0.05,-1.133 -0.05,-1.8c0,-0.333 0.017,-0.617 0.05,-0.85l0.05,-0.9c0,-0.333 -0.066,-0.733 -0.2,-1.2c0,-2.233 -0.166,-6.383 -0.5,-12.45c-0.333,-5.867 -0.516,-9.85 -0.55,-11.95c-2.066,0 -3.45,-0.05 -4.15,-0.15c-0.666,-0.167 -1,-0.433 -1,-0.8c0.167,-0.367 0.484,-0.55 0.95,-0.55c1,0 2.45,0.067 4.35,0.2c1.734,0.167 3.184,0.25 4.35,0.25l1.05,0l1.05,-0.05c0.6,0 0.9,0.217 0.9,0.65c0,0.2 -0.108,0.358 -0.325,0.475c-0.216,0.117 -0.475,0.175 -0.775,0.175c-0.666,0 -1.366,-0.033 -2.1,-0.1l-2.15,-0.1c-0.133,0 -0.2,0.05 -0.2,0.15c-0.033,0.1 -0.05,0.417 -0.05,0.95c0,3.233 0.2,8.133 0.6,14.7c0.367,6.8 0.55,11.683 0.55,14.65c0,0.233 -0.141,0.45 -0.425,0.65c-0.283,0.2 -0.558,0.3 -0.825,0.3l-0.55,-0.4Z" style="fill:#fff;fill-rule:nonzero;"/><path d="M250.181,159.75c-0.5,0 -0.816,-0.058 -0.95,-0.175c-0.133,-0.117 -0.233,-0.425 -0.3,-0.925c-0.3,-2.433 -0.483,-3.95 -0.55,-4.55l-0.25,-2c-0.733,-0.167 -1.566,-0.25 -2.5,-0.25l-1.8,-0.1c-0.8,-0.1 -1.383,-0.15 -1.75,-0.15c-0.2,0 -0.316,0.083 -0.35,0.25c0,0.1 -0.016,0.15 -0.05,0.15l-0.1,1c-0.033,0.6 -0.216,1.8 -0.55,3.6c-0.166,0.9 -0.366,1.6 -0.6,2.1c-0.266,0.567 -0.516,0.85 -0.75,0.85c-0.2,0 -0.416,-0.092 -0.65,-0.275c-0.233,-0.183 -0.35,-0.375 -0.35,-0.575l0.1,-0.3c0.6,-2.367 1.1,-4.717 1.5,-7.05l0.6,-3.1l0.6,-3.8c0,0 0.184,-1.1 0.55,-3.3c0.167,-0.9 0.467,-2.35 0.9,-4.35c0.467,-2.267 0.75,-3.817 0.85,-4.65c0.034,-0.1 0.1,-0.717 0.2,-1.85c0.134,-1.267 0.25,-2.2 0.35,-2.8c0.1,-0.867 0.2,-1.367 0.3,-1.5l0.35,0c0.1,0.033 0.217,0.05 0.35,0.05c0.4,0 0.7,-0.1 0.9,-0.3c0.234,0 0.442,0.075 0.625,0.225c0.184,0.15 0.275,0.325 0.275,0.525c0,1.6 0.117,3.433 0.35,5.5c0.134,1.067 0.234,1.95 0.3,2.65c0.367,4.3 1.3,12.367 2.8,24.2l0,0.15c0,0.333 -0.133,0.583 -0.4,0.75Zm-2.3,-9c-0.333,-4.8 -0.966,-11.883 -1.9,-21.25l-2.7,13.35c-0.766,3.833 -1.15,6.25 -1.15,7.25c0,0.167 0.634,0.317 1.9,0.45c1.267,0.133 2.384,0.2 3.35,0.2l0.5,0Z" style="fill:#fff;fill-rule:nonzero;"/><path d="M258.681,159.3c-0.766,0 -1.216,-0.167 -1.35,-0.5c-0.166,0 -0.3,0.017 -0.4,0.05l-0.4,0c-0.733,0 -1.2,-0.167 -1.4,-0.5c0,-0.233 0.134,-0.433 0.4,-0.6l0.25,-0.25l1.45,0l0.2,-0.2l0.1,-0.45l0.05,-0.6c0,-2.033 -0.05,-3.85 -0.15,-5.45l-0.1,-1.85l-0.1,-3.65c0,-1.3 0.05,-3.25 0.15,-5.85l0.1,-5.8c0,-2.533 -0.083,-4.467 -0.25,-5.8c-0.3,-0.1 -0.8,-0.15 -1.5,-0.15l-0.55,0.05c-0.2,0.033 -0.416,0.05 -0.65,0.05c-0.633,0 -0.95,-0.283 -0.95,-0.85c0,-0.133 0.15,-0.267 0.45,-0.4c0.3,-0.133 0.55,-0.2 0.75,-0.2c1.267,0 2.534,0.067 3.8,0.2c0.767,0.033 1.534,0.183 2.3,0.45c0.6,0.2 0.9,0.483 0.9,0.85c0,0.067 -0.05,0.2 -0.15,0.4l-1.15,0.1c-0.233,-0.2 -0.716,-0.3 -1.45,-0.3l-0.25,0.15c0.1,0.3 0.15,1.183 0.15,2.65c0,2.2 -0.016,4.183 -0.05,5.95l-0.1,5.95c0,1.5 0.067,3.317 0.2,5.45c0.1,2.433 0.15,4.267 0.15,5.5l0,0.65c-0.033,0.233 -0.05,0.533 -0.05,0.9c0,0.767 0.05,1.233 0.15,1.4l-0.05,0.1c0,0.333 0.367,0.5 1.1,0.5c0.3,0 0.55,-0.017 0.75,-0.05l0.75,0c0.967,0 1.45,0.233 1.45,0.7c0,0.3 -0.1,0.542 -0.3,0.725c-0.2,0.183 -0.466,0.275 -0.8,0.275c-0.3,0 -0.566,-0.033 -0.8,-0.1c-0.266,-0.033 -0.55,-0.05 -0.85,-0.05c-0.2,0 -0.5,0.083 -0.9,0.25c-0.4,0.2 -0.7,0.3 -0.9,0.3Z" style="fill:#fff;fill-rule:nonzero;"/><path d="M268.731,159.95c-0.466,0 -0.75,-0.383 -0.85,-1.15c0.067,-0.2 0.1,-0.75 0.1,-1.65c0,-3.067 0.05,-7.617 0.15,-13.65c0.1,-6 0.15,-10.333 0.15,-13l0.1,-1.8l0.15,-1.5c0,-0.233 0.117,-0.35 0.35,-0.35c0.167,0 0.4,0.05 0.7,0.15l0.15,0.05c0,0.733 -0.016,1.4 -0.05,2l0,7.4c0.034,1.6 0.05,3.417 0.05,5.45c-0.033,0.167 -0.05,0.533 -0.05,1.1l-0.05,1.05c-0.033,0.667 -0.05,1.35 -0.05,2.05c0,0.767 0.017,1.467 0.05,2.1l0.05,2.15l-0.15,0.4l0.05,-0.05c0,0.1 -0.016,0.167 -0.05,0.2l0,0.2c0,0.267 0.05,0.5 0.15,0.7l-0.15,4.8l0,0.3c0,0.567 0.017,0.9 0.05,1c0,0.167 0.084,0.25 0.25,0.25l2.6,0.1c0.767,0 1.292,0.008 1.575,0.025l0.675,0.025c0.167,0 0.334,0.092 0.5,0.275c0.167,0.183 0.25,0.375 0.25,0.575c0,0.4 -0.266,0.617 -0.8,0.65c-0.566,-0.033 -1.95,-0.05 -4.15,-0.05l0.1,0.05c-0.333,0 -0.65,0.017 -0.95,0.05c-0.266,0.067 -0.566,0.1 -0.9,0.1Z" style="fill:#fff;fill-rule:nonzero;"/><path d="M280.831,159.9c-0.366,-0.067 -0.716,-0.208 -1.05,-0.425c-0.333,-0.217 -0.516,-0.475 -0.55,-0.775l0.25,-0.4c0.134,0 0.434,0.05 0.9,0.15c0.367,0.133 0.667,0.2 0.9,0.2c0.734,0 1.384,-0.292 1.95,-0.875c0.567,-0.583 1,-1.342 1.3,-2.275c0.467,-1.733 0.7,-3.367 0.7,-4.9c0,-2.3 -0.7,-4.767 -2.1,-7.4c-0.866,-1.533 -1.533,-2.75 -2,-3.65c-0.466,-0.9 -0.883,-1.933 -1.25,-3.1c-0.433,-1.367 -0.65,-2.683 -0.65,-3.95c0,-1.2 0.3,-2.617 0.9,-4.25c0.3,-0.767 0.725,-1.392 1.275,-1.875c0.55,-0.483 1.142,-0.725 1.775,-0.725c0.434,0 0.859,0.15 1.275,0.45c0.417,0.3 0.625,0.617 0.625,0.95c0,0.267 -0.216,0.4 -0.65,0.4c-0.133,0 -0.3,-0.05 -0.5,-0.15c-0.2,-0.1 -0.383,-0.15 -0.55,-0.15c-0.5,0 -0.95,0.2 -1.35,0.6c-0.4,0.4 -0.7,0.917 -0.9,1.55c-0.4,1.233 -0.6,2.367 -0.6,3.4c0,0.633 0.084,1.283 0.25,1.95c0.034,0.2 0.067,0.367 0.1,0.5c0.034,0.133 0.05,0.233 0.05,0.3l0.3,1l0.25,0.9l0.4,0.9c0.1,0.233 0.209,0.442 0.325,0.625c0.117,0.183 0.225,0.358 0.325,0.525l0.6,1.05c0.134,0.2 0.417,0.675 0.85,1.425c0.434,0.75 0.834,1.542 1.2,2.375c0.334,0.7 0.584,1.358 0.75,1.975c0.167,0.617 0.317,1.358 0.45,2.225c0.1,0.833 0.15,1.75 0.15,2.75c0,1.6 -0.216,3.1 -0.65,4.5c-0.6,1.667 -1.466,2.833 -2.6,3.5c-0.633,0.4 -1.366,0.6 -2.2,0.6l-0.25,0.1Zm4,-32.6c0,-0.033 -0.016,-0.05 -0.05,-0.05l0,0.05l0.05,0Z" style="fill:#fff;fill-rule:nonzero;"/></g></svg>