<svg xmlns="http://www.w3.org/2000/svg" viewBox="0 0 6.43 5.19">
    <defs>
        <style>.cls-1{fill:#e6e6e6;fill-rule:evenodd;}</style>
    </defs>
    <g id="Layer_2" data-name="Layer 2">
        <g id="Ñëîé_1" data-name="Ñëîé 1">
            <path class="cls-1" d="M5.36,4.42H5a.56.56,0,0,0-.21-.29.12.12,0,0,0-.05,0l-.09,0H4.62A.58.58,0,0,0,4,4.41v0H3.51a1.18,1.18,0,0,0-.46,0,.51.51,0,0,0-.27-.34l0,0a.51.51,0,0,0-.58.1A.57.57,0,0,0,2,4.42H1.94a.23.23,0,0,1-.35-.13.65.65,0,0,1,0-.36s0-.08,0-.13l1.6,0,.81,0a6.09,6.09,0,0,0,.74,0,1,1,0,0,0,.77-.65l.16-.39a1.5,1.5,0,0,0,.48-.49A1.56,1.56,0,0,0,6,.48,1.56,1.56,0,0,0,4.26.13,1.5,1.5,0,0,0,3.5.84a1.46,1.46,0,0,0-.18.85H1.11a1.75,1.75,0,0,0-.45-.41.7.7,0,0,1-.13.17,1.81,1.81,0,0,1,.6.69,2.91,2.91,0,0,1,.34,1.18,2.24,2.24,0,0,1-.05.58.72.72,0,0,0,0,.5A.44.44,0,0,0,2,4.64.56.56,0,0,0,2.13,5,.6.6,0,0,0,3,4.91a.49.49,0,0,0,.11-.28h0l.93,0a.57.57,0,0,0,.37.56.57.57,0,0,0,.68-.41.77.77,0,0,0,0-.15h.29c.12,0,.12-.19,0-.18Zm.47-2.69c-.63,0-1.26,0-1.89,0V1.45l1.89,0c0,.1,0,.2,0,.3Zm-2,.12a.08.08,0,0,1,0-.05.72.72,0,0,1,0-.21V1.37c0-.05,0-.07.09-.07h0l2,0a.07.07,0,0,1,.07.07,0,0,0,0,1,0,0,1.7,1.7,0,0,1,0,.39.1.1,0,0,1,0,.07.06.06,0,0,1-.08,0c-.66,0-1.32,0-2,0a.06.06,0,0,1-.06,0ZM5.48,3h0ZM5.33,3l.09.08a1.15,1.15,0,0,1-.28.43.59.59,0,0,1-.2.12l-.29-.29a3.07,3.07,0,0,0,.25-.26A1.63,1.63,0,0,0,5.33,3Zm-.61.08-.16.17L4.29,3a.6.6,0,0,0,.19.06l.24,0Zm-1.28-1,0,0-.24-.24h.21a.05.05,0,0,0,0,0,1,1,0,0,0,0,.16ZM6,2.3a1.54,1.54,0,0,1-.91.58A1.33,1.33,0,0,1,3.52,1.74a1.6,1.6,0,0,1,.2-.91A1.38,1.38,0,0,1,4.55.22a1.42,1.42,0,0,1,1.66.91A1.51,1.51,0,0,1,6,2.3ZM4.78,3.67H4.34l.22-.23.22.22Zm-.31-.31c-.1.1-.2.21-.29.32H3.67l-.21-.22L4,2.88l.48.48Zm-1,.3h-.2l.1-.11.1.11Zm.43-.87-.52.57C3.21,3.18,3,3,2.88,2.83l.52-.54.5.5Zm-.62.68-.16.18h-.5c-.08-.1-.17-.19-.26-.29l.42-.43.5.54Zm-.82.17H2.09l.19-.2.18.2Zm-.55,0H1.68a.57.57,0,0,0,0-.13,2.58,2.58,0,0,0,0-.48l.12-.12.41.45-.28.28Zm-.06-.81.41-.44c.14.16.29.31.43.46l-.42.42-.42-.44Zm.5-.53.39-.41H3l.32.32-.53.54-.43-.45Zm-.08-.08L2,1.88h.63l-.31.33Zm-.48-.33.39.42-.41.43L1.5,2.44a3.2,3.2,0,0,0-.27-.56Zm-.21.81.12.12-.07.07a1.33,1.33,0,0,0,0-.19ZM2.3,4.84a.32.32,0,0,1-.08-.4c0-.09.3-.28.42-.19s0,0,0,0h0a.1.1,0,0,0,.09.06c.3.26-.12.74-.46.48Zm2.55-.19A.36.36,0,0,1,4.44,5a.37.37,0,0,1-.22-.46.38.38,0,0,1,.37-.26.4.4,0,0,1,.26.4ZM.57,1.25h0c0-.08.16,0,.12.06s-.3.38-.51.24A.41.41,0,0,1,0,1,.4.4,0,0,1,.57.84a.33.33,0,0,1,.08.51c-.05.07-.14,0-.11-.08S.59,1,.41,1a.27.27,0,0,0-.25.18.29.29,0,0,0,.08.29C.39,1.52.51,1.35.57,1.25Z"/>
        </g>
    </g>
</svg>