<svg xmlns="http://www.w3.org/2000/svg" viewBox="0 0 107.84 13.47">
    <defs>
        <style>.cls-1{fill:#fff;}</style>
    </defs>
    <g id="Layer_2" data-name="Layer 2">
        <g id="Layer_1-2" data-name="Layer 1">
            <path class="cls-1" d="M107.8,6.87a.13.13,0,0,0-.18-.18,1.47,1.47,0,0,1-1.8.06,8.29,8.29,0,0,0-1.94-1,2.61,2.61,0,0,0,1.51-.81,3,3,0,0,0,.39-.87,5.89,5.89,0,0,1,.45-1c.12-.21.29-.37.41-.57s.18-.63-.1-.37a17.09,17.09,0,0,1-2.25,1.43,2.58,2.58,0,0,0-1.05,2,8.88,8.88,0,0,0-3.17,0,2.73,2.73,0,0,0,1.08-1.42,4.78,4.78,0,0,0,.22-1.41,6.87,6.87,0,0,1,.25-1.55c.08-.26.16-.53.23-.79,0,0,.08-.6-.13-.34A14.66,14.66,0,0,0,100,2.64c-.18,0-.41,1.26-.44,1.42a7.22,7.22,0,0,0,0,1.61c-.56.19-1.2.27-1.79.43l-2,.54a2.87,2.87,0,0,0,.83-1.11,4.42,4.42,0,0,0,.3-2,6.85,6.85,0,0,1,.19-1.8c.07-.29.15-.59.22-.88,0,0,.15-.79-.11-.48-.74.9-1.72,1.44-2.25,2.52a3.6,3.6,0,0,0-.32,1.3,11.56,11.56,0,0,0,0,1.31A2.4,2.4,0,0,1,94.32,7c-.32.34-1,.25-1.45.3a11.73,11.73,0,0,0-1.8.13A2.54,2.54,0,0,0,92.76,6c.65-1.42,0-3.2-.44-4.56a.12.12,0,0,0-.24,0,5.9,5.9,0,0,1-2,4.43,2.68,2.68,0,0,0-.77.8c-.07.12-.14.47-.24.54s-.39,0-.56,0c-1-.1-2.06-.25-3.08-.45l-1.57-.3a6,6,0,0,0,3-1.57c1-1,.71-2.3.8-3.6,0-.17-.28-.21-.3,0C87.12,2.8,86,3.12,84.89,3.82c-.81.52-.88,1.69-1.61,2.29-.49.41-1.12.16-1.7.12a12.77,12.77,0,0,0-2.55,0A6.26,6.26,0,0,0,81,4.73c.86-1.12.39-2.28,0-3.51-.11-.35-.33.17-.37.29a3.31,3.31,0,0,1-.4.93c-.44.57-1.1.93-1.52,1.52a9.86,9.86,0,0,0-.77,1.52,2.63,2.63,0,0,1-.62,1,4.07,4.07,0,0,1-1.47.45,30.85,30.85,0,0,1-3.67.82l.07-.06a7.57,7.57,0,0,0,2.9-1.53A4.32,4.32,0,0,0,76.15,3a.12.12,0,0,0-.23,0,1.81,1.81,0,0,1-1.24,1.18c-.52.2-1.27.24-1.63.7a7.57,7.57,0,0,0-.81,1.73c-.15.34-.72,1.27-1.14,1.29a18,18,0,0,1-5.41-.8,11.23,11.23,0,0,0,3.67-1.4c.92-.65.91-2.22,1.55-3.07.11-.14-.1-.27-.22-.17a4,4,0,0,1-1.24.76c-.48.18-1,.15-1.47.3-.7.2-.89.78-1.2,1.37a2.79,2.79,0,0,1-2.55,1.83l-1-.25A15.14,15.14,0,0,0,59.61,6a7.57,7.57,0,0,0,2.27-1.37,1.63,1.63,0,0,0,.56-1.33A1.41,1.41,0,0,1,63,2c.13-.11,0-.28-.15-.26a3.7,3.7,0,0,0-2.34,1.22,3.88,3.88,0,0,0-.56,1.45,3.87,3.87,0,0,1-.29.87l0,0c-.44.83-1.43.84-2.21,1A6.76,6.76,0,0,0,54.9,7.46a2.62,2.62,0,0,0,.44-.92,9,9,0,0,0,.38-1,2.36,2.36,0,0,0,.06-1.93c-.18-.31-.43-.57-.62-.88-.08-.14-.3-1.27-.61-.86a3.69,3.69,0,0,0-.63,1.27,3.54,3.54,0,0,0-.64-1.27c-.3-.41-.52.72-.61.86-.19.31-.44.57-.61.88a2.33,2.33,0,0,0,.06,1.93,9,9,0,0,0,.37,1c.1.23.25.77.45.92a6.81,6.81,0,0,0-2.5-1.16c-.78-.19-1.77-.2-2.2-1l0,0a3.87,3.87,0,0,1-.29-.87,3.73,3.73,0,0,0-.57-1.45A3.68,3.68,0,0,0,45,1.7c-.14,0-.28.15-.15.26a1.41,1.41,0,0,1,.51,1.37A1.64,1.64,0,0,0,46,4.66,7.45,7.45,0,0,0,48.23,6a15.14,15.14,0,0,0-3.59.4l-1,.25a2.8,2.8,0,0,1-2.56-1.83c-.3-.59-.49-1.17-1.2-1.37-.49-.15-1-.12-1.47-.3a4.06,4.06,0,0,1-1.24-.76c-.11-.1-.32,0-.22.17.65.85.63,2.42,1.56,3.07a11.26,11.26,0,0,0,3.66,1.4,17.89,17.89,0,0,1-5.4.8c-.42,0-1-1-1.14-1.29a7.57,7.57,0,0,0-.81-1.73c-.36-.46-1.12-.5-1.63-.7A1.81,1.81,0,0,1,31.92,3a.12.12,0,0,0-.24,0,4.4,4.4,0,0,0,1,3.18A7.62,7.62,0,0,0,35.64,7.7l.07.06A30.42,30.42,0,0,1,32,6.94a4.18,4.18,0,0,1-1.48-.45,2.61,2.61,0,0,1-.61-1A9.86,9.86,0,0,0,29.18,4c-.43-.59-1.08-1-1.52-1.52a3,3,0,0,1-.4-.93c0-.12-.26-.64-.38-.29-.4,1.23-.86,2.39,0,3.51a6.14,6.14,0,0,0,1.93,1.54,12.87,12.87,0,0,0-2.56,0c-.57,0-1.21.29-1.69-.12-.73-.6-.81-1.77-1.62-2.29-1.08-.7-2.22-1-2.46-2.49,0-.17-.32-.13-.3,0,.09,1.3-.22,2.57.8,3.6a5.91,5.91,0,0,0,3,1.57l-1.58.3c-1,.2-2,.35-3.07.45-.17,0-.44.09-.56,0s-.17-.42-.25-.54a2.45,2.45,0,0,0-.77-.8,5.93,5.93,0,0,1-2-4.43.12.12,0,0,0-.23,0C15.1,2.84,14.43,4.62,15.07,6a2.58,2.58,0,0,0,1.7,1.34A11.92,11.92,0,0,0,15,7.25c-.43,0-1.14,0-1.45-.3a2.34,2.34,0,0,1-.33-1.49c0-.44.09-.88.06-1.31a3.82,3.82,0,0,0-.32-1.3C12.4,1.77,11.42,1.23,10.67.33c-.25-.31-.12.44-.11.48.08.29.16.59.22.88a6.86,6.86,0,0,1,.2,1.8,4.42,4.42,0,0,0,.3,2,2.85,2.85,0,0,0,.82,1.11c-.66-.18-1.31-.37-2-.54s-1.24-.24-1.8-.43a6.2,6.2,0,0,0,0-1.61c0-.16-.25-1.42-.44-1.42A13.66,13.66,0,0,0,6.11.07C5.9-.19,6,.37,6,.41c.06.26.15.53.22.79a6.36,6.36,0,0,1,.26,1.55,4.77,4.77,0,0,0,.21,1.41A2.8,2.8,0,0,0,7.77,5.58a8.88,8.88,0,0,0-3.17,0,2.61,2.61,0,0,0-1-2A17.2,17.2,0,0,1,1.29,2.14c-.27-.26-.14.28-.09.37s.29.36.41.57a5.15,5.15,0,0,1,.44,1,2.76,2.76,0,0,0,.4.87A2.61,2.61,0,0,0,4,5.75,8.36,8.36,0,0,0,2,6.75a1.47,1.47,0,0,1-1.8-.06A.12.12,0,0,0,0,6.87a1.59,1.59,0,0,0,1.74.37A1.67,1.67,0,0,0,1.5,8a8.62,8.62,0,0,1-.28,1.82c-.06.15-.71,1-.35,1a2,2,0,0,0,2-1.36,4.68,4.68,0,0,0-.26-2.66,7,7,0,0,1,4.55-.91c-1.89.82-3.56,3.05-2.5,5,.16.3.94-1.21,1.07-1.38.36-.47.76-.89,1.15-1.34S7.34,6.19,8.1,6A4.25,4.25,0,0,1,10,6.39c.91.24,1.82.51,2.73.75A5.43,5.43,0,0,0,9.22,8.67a3.23,3.23,0,0,0-.87,3.41.14.14,0,0,0,.27,0c.37-1.14,2.11-.89,2.73-1.9C11.77,9.5,12,8.7,12.42,8a1.34,1.34,0,0,1,1.66-.58,11.21,11.21,0,0,0,1.74.24c.5,0,1,0,1.51,0A5.31,5.31,0,0,0,14.86,10c-.61,1.13-.18,2.27.28,3.35.06.14.23.07.27,0,.4-1,1.49-1.45,2-2.38s-.09-2.65.9-3.07a6.18,6.18,0,0,1,1.77-.22c.57-.07,1.15-.15,1.71-.26L23.73,7a7.72,7.72,0,0,0-2.35,2c-1,1.29-.41,2.71-.55,4.2,0,.2.27.21.33,0,.42-1.2,2.05-1.27,2.43-2.41a8.27,8.27,0,0,0,.22-1.72c.08-.71.35-1.92,1.08-2.26a5,5,0,0,1,2-.2c.53,0,1,0,1.57,0l.78.1c.18,0,.56.18.72.13a6.47,6.47,0,0,0-3.28,2,4.28,4.28,0,0,0-.57,3.67c0,.16.23.12.27,0,.41-1.1,2-1,2.39-2.15.18-.52.13-1.08.31-1.59.3-.85,1-1.93,2.05-1.65l1.59.43a17.51,17.51,0,0,0,3.21.62h.39a7.54,7.54,0,0,0-3,1.83,3.51,3.51,0,0,0-.52,2.54c0,.36-.16,1.19.36.74A11.79,11.79,0,0,1,34,12.4a5.08,5.08,0,0,0,1.34-1c1-1.51.57-2.71,1.67-3.07a13.45,13.45,0,0,1,2.2-.22,22,22,0,0,0,2.39-.48l.41-.1a12.87,12.87,0,0,0-2.58,2.42,3.28,3.28,0,0,0-.79,1.26,5,5,0,0,0,0,1.39c0,.07,0,.77.22.54.68-.88,1.77-1.26,2.35-2.23.35-.59.2-1.38.45-2,.15-.41.65-1.45,1.12-1.56a22.15,22.15,0,0,1,5.55-.8c-.72.38-1.44.72-2.19,1a2.82,2.82,0,0,0-1.43.93A3.51,3.51,0,0,0,44.3,10a3.53,3.53,0,0,1-.14.92c-.11.28-.35.5-.4.81,0,.1-.07.41.16.27.64-.39,1.57-.33,2.12-.85s.48-1.33.7-2A4.15,4.15,0,0,1,47.9,7.42a3.36,3.36,0,0,1,1.36-.77A3.31,3.31,0,0,1,51,6.93a7.27,7.27,0,0,1,1.21.53c.2.11.88.72,1.06.7l-.24,0a8.71,8.71,0,0,1-1.13-.08,3.61,3.61,0,0,0-1.08.19A3.37,3.37,0,0,0,49,9.71a7.43,7.43,0,0,0-.22,1.16,1,1,0,0,1-.24.44c-.07.09-.27.18-.27.31a.17.17,0,0,0,.24.17,10.39,10.39,0,0,1,1.56-.47,2.25,2.25,0,0,0,1.26-.49c.8-.95,1-2.35,2.56-2.31s1.76,1.36,2.55,2.31a2.29,2.29,0,0,0,1.27.49,10.27,10.27,0,0,1,1.55.47.17.17,0,0,0,.25-.17c0-.13-.2-.22-.27-.31a1.12,1.12,0,0,1-.25-.44,6.42,6.42,0,0,0-.22-1.16A3.37,3.37,0,0,0,57,8.3a3.54,3.54,0,0,0-1.07-.19,9,9,0,0,1-1.13.08l-.24,0c.17,0,.86-.59,1-.7a7.76,7.76,0,0,1,1.22-.53,3.29,3.29,0,0,1,1.74-.28,3.33,3.33,0,0,1,1.37.77A4.13,4.13,0,0,1,61.09,9.2c.22.62.19,1.47.71,2s1.48.46,2.12.85c.23.14.18-.17.16-.27a4.69,4.69,0,0,0-.4-.81,3.53,3.53,0,0,1-.14-.92,3.39,3.39,0,0,0-.48-1.55,2.75,2.75,0,0,0-1.42-.93c-.75-.31-1.48-.65-2.19-1a22.28,22.28,0,0,1,5.55.8c.47.11,1,1.15,1.12,1.56.24.64.1,1.43.45,2,.57,1,1.67,1.35,2.35,2.23.18.23.21-.47.22-.54a5.88,5.88,0,0,0,0-1.39,3.19,3.19,0,0,0-.8-1.26,12.82,12.82,0,0,0-2.57-2.42l.4.1a21.68,21.68,0,0,0,2.4.48,13.22,13.22,0,0,1,2.19.22c1.11.36.63,1.56,1.68,3.07a5,5,0,0,0,1.33,1,11.91,11.91,0,0,1,.94.94c.51.45.34-.38.35-.74a3.51,3.51,0,0,0-.51-2.54,7.61,7.61,0,0,0-3-1.83H72a17.51,17.51,0,0,0,3.21-.62l1.59-.43c1-.28,1.75.8,2,1.65.18.51.14,1.07.32,1.59.4,1.15,2,1.05,2.39,2.15,0,.12.24.16.27,0a4.32,4.32,0,0,0-.57-3.67,6.5,6.5,0,0,0-3.29-2,2.28,2.28,0,0,0,.72-.13l.79-.1c.52,0,1-.06,1.56,0a5,5,0,0,1,2,.2c.73.34,1,1.55,1.08,2.26a8.26,8.26,0,0,0,.21,1.72c.39,1.14,2,1.21,2.44,2.41.06.16.35.15.33,0-.14-1.49.48-2.91-.56-4.2a7.57,7.57,0,0,0-2.34-2L86,7.35c.57.11,1.14.19,1.72.26a6.07,6.07,0,0,1,1.76.22c1,.42.46,2.28.91,3.07s1.62,1.36,2,2.38c0,.1.22.17.28,0,.46-1.08.89-2.22.28-3.35a5.36,5.36,0,0,0-2.47-2.21c.5,0,1,0,1.5,0a11.51,11.51,0,0,0,1.75-.24A1.34,1.34,0,0,1,95.42,8c.46.66.64,1.46,1.06,2.14.63,1,2.37.76,2.73,1.9a.14.14,0,0,0,.28,0,3.23,3.23,0,0,0-.87-3.41,5.47,5.47,0,0,0-3.48-1.53c.91-.24,1.81-.51,2.73-.75A4.22,4.22,0,0,1,99.74,6c.75.19.77,1.62,1.24,2.15s.8.87,1.16,1.34c.12.17.91,1.68,1.07,1.38,1.05-2-.61-4.21-2.51-5a7.05,7.05,0,0,1,4.56.91A4.68,4.68,0,0,0,105,9.41a2,2,0,0,0,2,1.36c.36,0-.29-.84-.34-1A8,8,0,0,1,106.34,8a1.57,1.57,0,0,0-.29-.72A1.6,1.6,0,0,0,107.8,6.87ZM54,8.15a.41.41,0,0,1-.18,0,3.5,3.5,0,0,1-.54-1.79,14.77,14.77,0,0,1,.63-1.95,16.42,16.42,0,0,1,.63,2A3.5,3.5,0,0,1,54,8.15Z"/>
        </g>
    </g>
</svg>